<svg width="16" height="16" viewBox="0 0 16 16" fill="none" xmlns="http://www.w3.org/2000/svg">
<path fill-rule="evenodd" clip-rule="evenodd" d="M8 16C12.4183 16 16 12.4183 16 8C16 3.58173 12.4183 0 8 0C3.58173 0 0 3.58173 0 8C0 12.4183 3.58173 16 8 16ZM11.3015 6.44189C11.5455 6.19781 11.5455 5.80206 11.3014 5.55798C11.0573 5.31396 10.6616 5.31403 10.4175 5.55811L6.84088 9.13544L5.44196 7.73645C5.19788 7.49237 4.80212 7.49237 4.55804 7.73645C4.31396 7.98053 4.31396 8.37628 4.55804 8.62036L6.39899 10.4613C6.51624 10.5786 6.67523 10.6443 6.841 10.6443C7.00677 10.6443 7.16571 10.5785 7.28296 10.4612L11.3015 6.44189Z" fill="#EE9C50"/>
</svg>
